<svg xmlns="http://www.w3.org/2000/svg"
  xmlns:xlink="http://www.w3.org/1999/xlink" xml:space="preserve" version="1.1" style="shape-rendering:geometricPrecision;text-rendering:geometricPrecision;image-rendering:optimizeQuality;" viewBox="0 0 169 336.25" x="0px" y="0px" fill-rule="evenodd" clip-rule="evenodd">
  <defs>
    <style type="text/css">
   
    .fil0 {fill:white}
   
    </style>
  </defs>
  <g>
    <path class="fil0" d="M13 233c-26,-42 -19,-110 72,-151 91,41 97,109 71,151 -43,25 -100,25 -143,0zm9 -9c38,21 87,21 125,0 11,-19 13,-42 6,-63 -11,-31 -40,-52 -68,-66 -29,14 -57,35 -68,66 -8,21 -5,44 5,63z"/>
    <path class="fil0" d="M25 254c-1,-3 -3,-6 -5,-9 40,18 89,18 129,0 -1,3 -3,6 -5,9 -36,21 -83,21 -119,0z"/>
    <ellipse class="fil0" cx="85" cy="75" rx="8" ry="9"/>
    <ellipse class="fil0" cx="85" cy="61" rx="6" ry="7"/>
    <path class="fil0" d="M94 0l0 0c-9,4 -16,13 -16,23 0,14 11,25 25,25 7,0 13,-2 17,-7 -5,10 -15,17 -26,17 -16,0 -29,-13 -29,-29 0,-16 13,-29 29,-29z"/>
  </g>
</svg>